<svg width="34" height="34" viewBox="0 0 34 34" fill="none" xmlns="http://www.w3.org/2000/svg">
<g clip-path="url(#clip0_207_95)">
<path d="M20.7347 12.699C20.0143 12.699 19.4809 12.8807 19.0634 13.1102C18.9964 12.8722 18.7765 12.6979 18.5172 12.75H15.3468C15.0333 12.6979 14.7794 12.9519 14.8761 13.2812V24.9687C14.7794 25.2662 15.0333 25.5212 15.3468 25.5H18.5172C18.8307 25.5212 19.0846 25.2662 19.0846 24.9528L19.0836 17.8893C19.0825 17.8861 19.0708 17.5482 19.2844 17.3156C19.4554 17.1307 19.7498 17.0361 20.1567 17.0361C20.8346 17.0361 21.1363 17.3134 21.2489 17.9339V24.9528C21.1374 25.2662 21.3913 25.5212 21.7047 25.5H25.0463C25.3598 25.5212 25.6137 25.2662 25.5011 24.9528V17.6981C25.6126 14.0091 22.9851 12.699 20.7347 12.699ZM24.4779 24.4375H22.2721V17.9339C22.2721 16.6791 21.4614 15.9014 20.1578 15.9014C19.4204 15.9014 18.8466 16.1181 18.4514 16.5452C17.9021 17.1402 17.9446 17.8946 18.0625 18.0625V24.4375H15.9141V13.8337H17.9499V14.1907C17.949 14.2971 17.9782 14.4015 18.0341 14.492C18.0899 14.5825 18.1702 14.6554 18.2656 14.7024C18.3611 14.7493 18.4678 14.7684 18.5736 14.7574C18.6794 14.7464 18.7799 14.7058 18.8636 14.6402L19.0124 14.5254C19.4427 14.1865 19.8879 13.8348 20.7358 13.8348C21.6134 13.8348 24.4789 14.1142 24.4789 17.6991L24.4779 24.4375ZM11.6875 7.40137C10.4954 7.40137 9.52637 8.37037 9.52637 9.56249C9.52637 10.7546 10.4954 11.7236 11.6875 11.7236C12.8796 11.7236 13.8486 10.7546 13.8486 9.56249C13.8486 8.37037 12.8796 7.40137 11.6875 7.40137ZM11.6875 10.5889C11.1223 10.5889 10.6611 10.1277 10.6611 9.56249C10.6611 8.99724 11.1223 8.53612 11.6875 8.53612C12.2528 8.53612 12.7139 8.99724 12.7139 9.56249C12.7139 10.1277 12.2528 10.5889 11.6875 10.5889ZM13.2048 12.6979H10.0513C9.73781 12.6979 9.48388 12.9519 9.5625 13.2812V24.9687C9.48388 25.2662 9.73781 25.5212 10.0513 25.5H13.2048C13.5182 25.5212 13.7721 25.2662 13.7721 24.9528V13.2653C13.7721 13.1148 13.7123 12.9705 13.6059 12.8641C13.4995 12.7577 13.3552 12.6979 13.2048 12.6979ZM12.75 24.4375H10.6186V13.8337H12.75V24.4375Z" fill="#4600F7"/>
<path d="M17 -0.0361328C7.60538 -0.0361328 -0.0361252 7.60537 -0.0361252 17C-0.0361252 26.3946 7.60538 34.0361 17 34.0361C26.3946 34.0361 34.0361 26.3946 34.0361 17C34.0361 7.60537 26.3946 -0.0361328 17 -0.0361328ZM17 32.9014C8.23225 32.9014 1.09862 25.7677 1.09862 17C1.09862 8.23224 8.23225 1.09862 17 1.09862C25.7678 1.09862 32.9014 8.23224 32.9014 17C32.9014 25.7677 25.7678 32.9014 17 32.9014Z" fill="#4600F7"/>
</g>
<defs>
<clipPath id="clip0_207_95">
<rect width="34" height="34" fill="white"/>
</clipPath>
</defs>
</svg>
