<?xml version="1.0" encoding="UTF-8"?>
<svg xmlns="http://www.w3.org/2000/svg" viewBox="0 0 332.05 189.8">
    <defs>
        <style>.fg{fill:#000000;stroke-width:0px;}</style>
    </defs>
    <path class="fg" d="m250.42,145.28h-2.55l-30.45-67.51-26.92,67.13h-2.56l-32.98-73.13h-.05s-9.14-20.1-9.14-20.1c-.2-.58-.46-1.31-.78-2.02l-.82-1.58c-1.32-2.51-3.89-4.07-6.72-4.07h-5.95v-1.63h32.63v1.63h-5.98c-1.2,0-2.29.6-2.94,1.61-.64,1.01-.72,2.26-.22,3.35l38.46,82.15,19.37-47.64c2.16-5.57,2.19-11.07-.26-16.52l-7.78-17.26c-1.56-3.45-5.01-5.68-8.8-5.68h-4.81v-1.63h32.63v1.63h-5.56c-1.27,0-2.43.64-3.12,1.71-.68,1.07-.76,2.4-.22,3.54l38.49,81.07,31.35-78.91c.77-1.96.77-2.94-.42-4.68-1.18-1.74-2.28-2.37-4.38-2.37h-7.46v-1.63h32.63v1.63h-8.69c-3.82,0-7.18,2.29-8.58,5.84"/>
    <path class="fg" d="m42.15,145.28v-1.63h7.48c4.21,0,7.63-3.42,7.63-7.63V61.53c0-4.27-1.54-8.41-4.33-11.64l-1.22-1.41c-2.25-2.61-5.52-4.1-8.97-4.1h-4.75v-1.63h23.93l73.81,85.36v-23.57l3.58,7.85v32.16h-4.66L60.84,59.06v76.88c0,4.25,3.46,7.71,7.71,7.71h6.23v1.63h-32.63Z"/>
</svg>